<svg xmlns="http://www.w3.org/2000/svg" viewBox="0 0 64 64" role="img" aria-label="JC">
  <rect width="64" height="64" rx="14" fill="#4a90e2"/>
  <path d="M23 18v22c0 6-3.6 9-9 9-2.2 0-4.2-.5-6-1.6l1.9-5.3c1.1.7 2.3 1 3.7 1 2.4 0 3.7-1.3 3.7-4V18h5.7Z" fill="#ffffff"/>
  <path d="M44.1 49c-8.7 0-14.5-6.1-14.5-15.4 0-9.2 5.9-15.6 14.5-15.6 4 0 7.2 1.2 9.7 3.6l-3.1 4.6c-1.8-1.6-3.9-2.4-6.2-2.4-5.1 0-8.5 3.9-8.5 9.7 0 5.9 3.4 9.8 8.6 9.8 2.8 0 5.1-1 6.9-2.9l3.2 4.4C52.1 47.6 48.6 49 44.1 49Z" fill="#ffffff"/>
</svg>
